<svg width="209" height="48" viewBox="0 0 209 48" fill="none" xmlns="http://www.w3.org/2000/svg">
<path fill-rule="evenodd" clip-rule="evenodd" d="M69.5404 39.7849C66.2216 39.7849 63.1522 38.8143 60.4154 36.9018L60.1637 36.6933C59.1368 35.8418 58.3953 35.2264 57.9313 34.729L57.8145 34.6043L61.249 31.4708L61.3658 31.6131C61.7388 32.0698 62.1366 32.447 62.5837 32.7657C64.4442 34.4576 66.8474 35.4128 69.5494 35.5407C71.8515 35.5407 73.7333 35.0852 74.8422 34.2591C76.0826 33.3348 76.7387 32.1227 76.7387 30.755C76.7387 29.4337 76.4297 28.5922 75.6725 27.8488C75.0422 27.23 73.7232 26.6896 72.1447 26.4039L65.0869 25.1763C62.6601 24.6624 60.8591 23.6532 59.5772 22.0892C58.5301 20.8285 57.9302 18.8399 57.9302 16.6318C57.9302 13.8104 58.92 11.4579 60.7187 10.0097C62.8444 8.27696 65.6475 7.4707 69.5404 7.4707C72.2795 7.4707 74.6377 8.24277 76.7499 9.82991C77.9756 10.7564 78.8138 11.6509 79.3868 12.6446L79.453 12.7604L76.2713 15.7417L76.1522 15.5994C75.1512 14.4027 73.6704 13.2799 71.8728 12.3524C70.7313 11.7535 69.691 11.6707 68.736 11.6707H68.691C66.7957 11.6707 65.1093 12.1362 64.0634 12.9501C62.914 13.8689 62.2523 15.0998 62.2523 16.3252C62.2523 18.5112 63.6342 19.8866 66.3575 20.4127L73.4603 21.7715C75.9724 22.377 77.9251 23.3973 79.2722 24.8046C80.5417 26.1436 81.2405 28.1168 81.2405 30.3602C81.2405 32.0543 80.9451 33.4992 80.4518 34.226C79.9238 35.3621 79.0666 36.4584 78.0509 37.2889C75.7219 38.9477 72.8626 39.7849 69.5404 39.7849Z" fill="black"/>
<path fill-rule="evenodd" clip-rule="evenodd" d="M69.542 7.2998C65.6064 7.2998 62.7685 8.1193 60.6091 9.8785C58.771 11.3587 57.7576 13.7576 57.7576 16.6319C57.7576 18.8775 58.3733 20.9058 59.444 22.1973C60.7518 23.7911 62.5853 24.8201 65.0458 25.3407L72.1171 26.5716C73.6608 26.8507 74.9449 27.3724 75.5516 27.968C76.283 28.686 76.5673 29.4669 76.5673 30.754C76.5673 32.0676 75.9347 33.2323 74.7382 34.1235C73.6765 34.9154 71.7823 35.3698 69.542 35.3698C66.8984 35.2441 64.5335 34.3044 62.719 32.6533L62.7033 32.64L62.6864 32.6279C62.2528 32.318 61.8652 31.9518 61.5023 31.5062L61.2697 31.2205L60.9956 31.4698L57.8239 34.365L57.5723 34.5945L57.8048 34.8437C58.2756 35.3478 59.0193 35.9654 60.0473 36.818L60.2934 37.0221L60.3046 37.032L60.3159 37.0397C63.083 38.9743 66.1873 39.9537 69.542 39.9537C72.9013 39.9537 75.7954 39.1055 78.1447 37.4335L78.1548 37.4268L78.1638 37.4191C79.1906 36.5787 80.0602 35.4702 80.613 34.2967C81.1163 33.5367 81.4152 32.0687 81.4152 30.3591C81.4152 28.0727 80.6995 26.0587 79.4007 24.6889C78.0301 23.2551 76.0482 22.2194 73.5114 21.6072L66.3917 20.2451C63.7616 19.7366 62.428 18.4175 62.428 16.3241C62.428 15.1506 63.0651 13.9682 64.1762 13.0793C65.1739 12.3039 66.8636 11.8395 68.6927 11.8395H68.7376C69.6701 11.8395 70.6846 11.9201 71.7913 12.5013C73.572 13.419 75.0337 14.5274 76.0201 15.7065L76.2572 15.9899L76.5279 15.7374L79.476 12.9734L79.6715 12.7914L79.5389 12.5598C78.9547 11.5462 78.102 10.6362 76.8571 9.69541C74.7135 8.0829 72.3204 7.2998 69.542 7.2998ZM69.541 7.63797C72.2217 7.63797 74.5451 8.38467 76.6449 9.96299C77.8066 10.8409 78.6549 11.7178 79.2357 12.7259L76.2876 15.4899C75.2596 14.2612 73.7407 13.1207 71.9532 12.1998C70.7027 11.5424 69.541 11.4983 68.7366 11.4983H68.6917C66.7705 11.4983 65.0291 11.9803 63.9561 12.8141C62.7506 13.7792 62.0799 15.0509 62.0799 16.3226C62.0799 18.6476 63.5988 20.0506 66.3245 20.5767L73.4272 21.9366C75.7956 22.5068 77.7617 23.4719 79.1469 24.919C80.3525 26.1918 81.0681 28.0767 81.0681 30.3576C81.0681 32.1124 80.7547 33.4723 80.3075 34.1297C79.8166 35.1819 79.0121 36.2793 77.9403 37.1562C75.6619 38.7786 72.8475 39.6124 69.541 39.6124C66.1908 39.6124 63.1517 38.6032 60.516 36.7613C59.3554 35.7962 58.551 35.1389 58.0589 34.6128L61.2316 31.7175C61.5889 32.1554 61.9911 32.5514 62.4821 32.9021C64.3134 34.5687 66.7705 35.5779 69.541 35.7091C71.9094 35.7091 73.8294 35.226 74.9473 34.3933C76.2427 33.4282 76.9123 32.1554 76.9123 30.7525C76.9123 29.4808 76.6449 28.5598 75.7956 27.726C75.1698 27.1127 73.8744 26.5414 72.1768 26.2348L65.1178 25.0072C62.8394 24.5241 61.0081 23.5601 59.7127 21.9807C58.7296 20.7961 58.1038 18.8671 58.1038 16.6303C58.1038 13.8233 59.0869 11.5424 60.8294 10.1384C62.9292 8.42768 65.7436 7.63797 69.541 7.63797Z" fill="black"/>
<path fill-rule="evenodd" clip-rule="evenodd" d="M97.0574 39.0799C89.894 39.0799 84.0664 33.6765 84.0664 27.0346V10.3359L88.2941 10.3834V16.5852H97.2305V20.7356H88.293L88.2492 27.0357C88.6458 31.7034 92.268 34.9725 97.0574 34.9725H97.2305V39.0799H97.0574Z" fill="black"/>
<path fill-rule="evenodd" clip-rule="evenodd" d="M83.8926 10.1631V10.5072V16.7543V20.565V27.0349C83.8926 30.3426 85.2756 33.4309 87.7889 35.7294C90.2684 37.9993 93.5603 39.2489 97.0577 39.2489H97.4038V38.9092V35.1427V34.8018H97.0577C92.2919 34.8018 88.8236 31.6761 88.4225 27.0216L88.4652 20.9058H97.0577H97.4038V20.565V16.7543V16.4146H97.0577H88.4675V10.5513V10.2149L88.1248 10.2116L84.2431 10.1675L83.8926 10.1631ZM84.241 10.5067L88.1216 10.5508V16.7538H97.059V20.5645H88.1216L88.0766 27.0344C88.48 31.787 92.0942 35.1421 97.059 35.1421V38.9087C90.063 38.9087 84.241 33.7248 84.241 27.0344V20.5645V16.7538V10.5067Z" fill="black"/>
<path fill-rule="evenodd" clip-rule="evenodd" d="M100.859 38.8271V16.584H105.087V19.605C107.342 17.6538 110.182 16.584 113.129 16.584H113.302V20.6936L113.009 20.6903C107.567 20.6903 105.087 24.0024 105.087 27.0785V38.8271H100.859Z" fill="black"/>
<path fill-rule="evenodd" clip-rule="evenodd" d="M113.476 16.415H113.13C110.265 16.415 107.499 17.4121 105.262 19.2364V16.7558V16.415H104.915H101.034H100.688V16.7558V38.6571V38.9979H101.034H104.915H105.262V38.6571V27.0794C105.262 25.2088 106.065 23.6217 107.581 22.4912C108.992 21.4401 110.92 20.861 113.009 20.861L113.126 20.8621L113.476 20.8654V20.5213V16.7558V16.415ZM113.132 16.7567V20.5221C113.092 20.5221 113.051 20.5221 113.011 20.5221C108.771 20.5221 104.917 22.8659 104.917 27.0803V38.6579H101.036V16.7567H104.917V19.9905C107.083 17.9964 109.972 16.7567 113.132 16.7567Z" fill="black"/>
<path fill-rule="evenodd" clip-rule="evenodd" d="M124.823 47.8286C122.067 47.8286 119.471 46.9583 117.315 45.3116L117.153 45.1881L120.296 42.3436L120.411 42.4241C121.644 43.2899 123.227 43.7664 124.868 43.7664C128.015 43.7664 131.805 41.587 132.66 38.0399C131.016 38.802 129.002 39.2178 126.942 39.2189H126.941C123.644 39.2189 120.607 38.1623 118.817 36.3932C117.554 35.1469 116.921 33.6138 116.932 31.8391V16.4541H121.16L121.161 30.3336C121.161 33.7108 124.129 35.2483 126.887 35.2483C129.7 35.2483 132.729 33.6689 132.729 30.2012V16.4541H137.047V36.8917C137.047 42.7175 131.335 47.8286 124.823 47.8286Z" fill="black"/>
<path fill-rule="evenodd" clip-rule="evenodd" d="M137.222 16.2852H136.875H132.903H132.557V16.6249V30.2022C132.557 33.554 129.618 35.0794 126.888 35.0794C124.213 35.0794 121.335 33.5948 121.335 30.3356V16.6249V16.2852H120.989H117.107H116.76V16.6249V31.8422C116.749 33.661 117.399 35.2338 118.695 36.5143C120.517 38.3154 123.601 39.3897 126.944 39.3897C128.89 39.3897 130.798 39.0213 132.4 38.3441C131.411 41.6077 127.848 43.5975 124.869 43.5975C123.265 43.5975 121.718 43.132 120.512 42.2872L120.283 42.1261L120.076 42.3136L117.188 44.9287L116.887 45.2011L117.21 45.4471C119.397 47.117 122.03 48.0004 124.824 48.0004C131.429 48.0004 137.222 42.81 137.222 36.8926V16.6249V16.2852ZM136.874 16.6256L136.875 36.8933C136.875 42.5206 131.369 47.6603 124.823 47.6603C122.026 47.6603 119.453 46.7305 117.422 45.1798L120.31 42.5647C121.574 43.4515 123.199 43.939 124.868 43.939C128.976 43.939 132.316 40.9257 132.902 37.736C131.172 38.6117 129.055 39.0507 126.943 39.0507C122.002 39.0507 117.074 36.6529 117.106 31.8429V16.6256H120.988V30.3363C120.988 33.7257 123.928 35.4209 126.887 35.4209C129.885 35.4209 132.902 33.6815 132.902 30.2028V16.6256H136.874Z" fill="black"/>
<path fill-rule="evenodd" clip-rule="evenodd" d="M152.959 19.981C148.92 19.981 145.535 23.0406 145.087 27.0972L145.088 28.7627C145.532 32.7245 148.989 35.7267 153.129 35.7267C153.891 35.7267 154.665 35.6252 155.431 35.4267C157.685 34.8421 159.559 33.2307 160.444 31.1153C161.526 28.5311 161.302 25.7869 159.833 23.5888C158.36 21.384 155.852 20.0351 153.126 19.9832L152.959 19.981ZM153.084 39.7877C150.173 39.7877 147.349 38.7609 145.088 36.8892V38.826H140.859V8.52246H145.088V18.8063C147.281 16.9126 150.046 15.8736 152.915 15.8736L153.086 15.8747C159.825 15.9652 165.308 21.3486 165.308 27.8759C165.308 34.4439 159.824 39.7877 153.084 39.7877Z" fill="black"/>
<path fill-rule="evenodd" clip-rule="evenodd" d="M145.259 27.0969C145.706 23.1351 149.013 20.1505 152.957 20.1505C153.011 20.1505 153.065 20.1505 153.119 20.1516C155.79 20.2035 158.245 21.5226 159.686 23.6811C161.124 25.8318 161.341 28.5186 160.282 31.0499C159.416 33.1157 157.586 34.6907 155.384 35.262C154.634 35.4561 153.873 35.5554 153.127 35.5554C149.082 35.5554 145.704 32.6282 145.259 28.7436V27.0969ZM145.26 8.35254H144.913H141.032H140.686V8.69335V38.6571V38.9968H141.032H144.913H145.26V38.6571V37.2487C147.502 39.0013 150.252 39.9586 153.083 39.9586C159.919 39.9586 165.48 34.5387 165.48 27.8758C165.48 21.257 159.921 15.7974 153.088 15.7059C153.029 15.7048 152.972 15.7037 152.914 15.7037C150.126 15.7037 147.437 16.6699 145.26 18.439V8.69335V8.35254ZM153.128 35.8944C153.889 35.8944 154.675 35.7973 155.474 35.59C157.783 34.9911 159.695 33.3466 160.603 31.1782C163.026 25.3877 158.768 19.9204 153.128 19.8112C153.071 19.8101 153.015 19.809 152.959 19.809C148.749 19.809 145.359 23.055 144.913 27.0774V28.7616C145.365 32.7929 148.841 35.8944 153.128 35.8944ZM144.913 8.69406V19.193C147.041 17.2342 149.822 16.0452 152.914 16.0452C152.97 16.0452 153.026 16.0452 153.083 16.0463C159.718 16.1356 165.134 21.4519 165.134 27.8765C165.134 34.3453 159.718 39.6185 153.083 39.6185C149.924 39.6185 147.08 38.4218 144.913 36.517V38.6578H141.032V8.69406H144.913Z" fill="black"/>
<path fill-rule="evenodd" clip-rule="evenodd" d="M187.754 25.8015C186.823 22.4209 183.679 20.022 180.03 19.9382H179.939C176.32 19.9382 173.161 22.3382 172.179 25.8015H187.754ZM179.987 39.8334C173.222 39.8334 167.719 34.4698 167.719 27.8774C167.719 21.2344 173.15 15.8311 179.827 15.8311L179.99 15.8322C186.754 15.9226 192.256 21.3259 192.256 27.8774C192.256 28.5514 192.165 29.1855 192.075 29.7988L192.055 29.9444L191.903 29.9532H172.179C173.15 33.3635 176.348 35.7271 180.032 35.7271C182.639 35.7271 185.1 34.462 186.616 32.3433L186.724 32.1922L189.927 34.804L189.831 34.933C187.559 38.0014 183.879 39.8334 179.987 39.8334Z" fill="black"/>
<path fill-rule="evenodd" clip-rule="evenodd" d="M172.411 25.6303C173.44 22.3567 176.475 20.1067 179.938 20.1067L180.029 20.1078C183.521 20.1872 186.542 22.435 187.524 25.6303H172.411ZM179.828 15.6592H179.827C173.055 15.6592 167.545 21.1397 167.545 27.8754C167.545 34.5615 173.126 40.0012 179.987 40.0012C183.933 40.0012 187.666 38.1439 189.971 35.0314L190.162 34.7733L189.913 34.5703L186.979 32.1769L186.689 31.942L186.474 32.2431C184.991 34.3166 182.583 35.5553 180.031 35.5553C176.504 35.5553 173.432 33.3416 172.41 30.121H191.902H192.203L192.246 29.8288C192.337 29.2023 192.429 28.5615 192.429 27.8754C192.429 21.2313 186.85 15.7518 179.992 15.6603C179.937 15.6592 179.883 15.6592 179.828 15.6592ZM171.953 25.9704H187.976C187.118 22.4696 183.914 19.8557 180.031 19.7663C180 19.7663 179.968 19.7663 179.937 19.7663C176.053 19.7663 172.849 22.4531 171.953 25.9704ZM179.827 15.9996C179.881 15.9996 179.934 16.0007 179.986 16.0007C186.622 16.09 192.083 21.4073 192.083 27.8761C192.083 28.5412 191.992 29.1611 191.902 29.7809H171.953C172.856 33.3258 176.106 35.8957 180.031 35.8957C182.785 35.8957 185.268 34.5225 186.758 32.4401L189.691 34.8324C187.524 37.7574 183.959 39.6622 179.986 39.6622C173.307 39.6622 167.891 34.3449 167.891 27.8761C167.891 21.4151 173.221 16.0007 179.827 15.9996Z" fill="black"/>
<path fill-rule="evenodd" clip-rule="evenodd" d="M195.883 38.8271V16.584H200.111V19.605C202.365 17.6538 205.206 16.584 208.153 16.584H208.326V20.6936L208.032 20.6903C202.589 20.6903 200.111 24.0024 200.111 27.0785V38.8271H195.883Z" fill="black"/>
<path fill-rule="evenodd" clip-rule="evenodd" d="M208.497 16.415H208.151C205.286 16.415 202.52 17.4121 200.282 19.2364V16.7558V16.415H199.936H196.054H195.707V16.7558V38.6571V38.9979H196.054H199.936H200.282V38.6571V27.0794C200.282 25.2088 201.084 23.6217 202.602 22.4912C204.013 21.4401 205.94 20.861 208.03 20.861L208.146 20.8621L208.497 20.8654V20.5213V16.7558V16.415ZM208.152 16.7566V20.522C208.112 20.522 208.071 20.522 208.031 20.522C203.791 20.522 199.937 22.8658 199.937 27.0801V38.6578H196.055V16.7566H199.937V19.9904C202.103 17.9963 204.992 16.7566 208.152 16.7566Z" fill="black"/>
<path fill-rule="evenodd" clip-rule="evenodd" d="M38.328 30.385L33.7576 34.4042C31.5128 31.9446 31.724 28.1648 34.2305 25.9611L38.8009 21.9419C41.0446 24.4015 40.8334 28.1813 38.328 30.385ZM29.3532 35.5011C29.2307 37.1544 27.7668 38.3963 26.0827 38.2761C24.3985 38.1559 23.1335 36.7176 23.2559 35.0654C23.3784 33.4121 24.8423 32.1702 26.5264 32.2904C28.2106 32.4106 29.4756 33.8477 29.3532 35.5011ZM16.6696 28.2289L27.2833 18.8947C29.8045 16.6777 33.6794 16.8862 35.9388 19.3612L25.3251 28.6955C22.8039 30.9124 18.929 30.7039 16.6696 28.2289ZM14.7297 16.6207L19.3001 12.6004C21.5449 15.0611 21.3337 18.8409 18.8283 21.0446L14.2567 25.0637C12.0131 22.6042 12.2243 18.8244 14.7297 16.6207ZM23.2559 11.7518C23.3784 10.0996 24.8423 8.85655 26.5264 8.97678C28.2106 9.097 29.4756 10.5352 29.3532 12.1875C29.2307 13.8408 27.7668 15.0838 26.0827 14.9625C24.3985 14.8423 23.1335 13.4051 23.2559 11.7518ZM51.9663 19.6259L42.7772 4.0015C41.3212 1.52538 38.6304 0 35.7183 0H17.3401C14.428 0 11.7372 1.52538 10.2811 4.0015L1.09204 19.6259C-0.364014 22.102 -0.364014 25.1516 1.09204 27.6277L10.2811 43.2532C11.7372 45.7282 14.428 47.2536 17.3401 47.2536H35.7183C38.6304 47.2536 41.3212 45.7282 42.7772 43.2532L51.9663 27.6277C53.4224 25.1516 53.4224 22.102 51.9663 19.6259Z" fill="black"/>
</svg>
