<?xml version="1.0" encoding="UTF-8"?> <svg xmlns="http://www.w3.org/2000/svg" xmlns:xlink="http://www.w3.org/1999/xlink" width="535px" height="156px" viewBox="0 0 535 156" version="1.1"><title>logo-ynap@2x</title><g id="💎-Symbols" stroke="none" stroke-width="1" fill="none" fill-rule="evenodd"><g id="01-Atoms/identity/logo" transform="translate(0.000000, -1.000000)" fill="#1D1D1B"><g id="logo-ynap" transform="translate(0.000000, 1.000000)"><path d="M30.765,8.7984 C33.8,3.5824 33.553,2.1864 27.483,1.5174 L27.483,1.0354 L41.502,1.0354 L41.502,1.5174 C36.95,2.0664 35.375,3.4584 31.911,9.2224 L23.12,24.0924 L23.12,38.5884 C23.12,41.6264 24.698,42.5384 30.461,42.7164 L30.461,43.3224 L10.677,43.3224 L10.677,42.7784 C16.99,42.5964 18.02,41.6264 18.02,38.5884 L18.02,25.1814 L7.405,6.7974 C5.154,2.9754 3.944,2.0034 0,1.5174 L0,1.0354 L17.956,1.0354 L17.956,1.5174 C11.525,1.7604 11.224,3.2184 13.411,6.9784 L22.451,23.1224 L30.765,8.7984 Z" id="Fill-1"></path><path d="M79.2658,22.207 C79.2658,5.644 73.0138,0.848 65.0678,0.848 C57.1798,0.848 51.2358,5.644 51.2358,22.15 C51.2358,38.657 57.4778,43.507 65.4298,43.507 C73.3138,43.507 79.2658,38.657 79.2658,22.207 M45.2268,22.27 C45.2268,8.856 55.2368,0 65.3078,0 C75.6868,0 85.2718,8.555 85.2718,22.092 C85.2718,35.436 75.2578,44.355 65.2408,44.355 C54.8108,44.355 45.2268,35.741 45.2268,22.27" id="Fill-3"></path><path d="M130.4093,22.207 C130.4093,5.644 124.1603,0.848 116.2113,0.848 C108.3273,0.848 102.3793,5.644 102.3793,22.15 C102.3793,38.657 108.6273,43.507 116.5763,43.507 C124.4643,43.507 130.4093,38.657 130.4093,22.207 M96.3703,22.27 C96.3703,8.856 106.3803,0 116.4613,0 C126.8333,0 136.4213,8.555 136.4213,22.092 C136.4213,35.436 126.4083,44.355 116.3943,44.355 C105.9543,44.355 96.3703,35.741 96.3703,22.27" id="Fill-5"></path><path d="M169.7143,9.04 C173.2963,3.884 172.1473,1.941 166.6253,1.517 L166.6253,1.032 L181.7933,1.032 L181.7933,1.517 C176.9403,2.186 175.6653,3.035 170.6843,10.012 L163.3983,20.265 L174.5643,37.38 C177.1793,41.444 178.1533,42.115 183.1853,42.779 L183.1853,43.323 L164.5633,43.323 L164.5633,42.779 C170.7483,42.474 170.8763,40.835 168.8663,37.682 L160.1333,23.726 L152.1203,35.315 C148.6053,40.411 149.6903,42.355 155.2093,42.779 L155.2093,43.323 L140.0443,43.323 L140.0443,42.779 C144.7723,42.172 146.1113,41.444 151.1503,34.341 L159.3963,22.699 L149.1463,6.919 C146.5943,2.914 145.6273,2.186 140.4673,1.517 L140.4673,1.032 L159.1563,1.032 L159.1563,1.517 C153.2723,1.762 152.8463,3.582 154.8503,6.796 L162.6813,19.174 L169.7143,9.04 Z" id="Fill-7"></path><path d="M3.9511,133.0312 C3.9511,119.8022 14.4481,110.8832 25.2491,110.8832 C29.8021,110.8832 33.0831,111.7312 36.5411,113.3722 L39.0821,110.5212 L39.5081,110.5212 L39.5081,123.8692 L38.9601,123.8692 C34.7761,114.4042 31.0721,111.7312 24.8231,111.7312 C17.3001,111.7312 9.9601,117.1962 9.9601,132.9112 C9.9601,148.5652 18.2701,154.3922 25.7971,154.3922 C29.6191,154.3922 32.7761,153.2972 34.8371,151.7202 L34.8371,140.1332 C34.8371,137.1612 33.8031,135.9462 27.6731,135.7622 L27.6731,135.2142 L45.0911,135.2142 L45.0911,135.7622 C40.5421,136.0052 39.9301,136.9142 39.9301,140.0692 L39.9301,151.2342 C35.8071,153.7822 30.3391,155.2402 25.9761,155.2402 C14.6341,155.2402 3.9511,147.6532 3.9511,133.0312" id="Fill-9"></path><path d="M71.3168,132.6104 C80.4218,132.6104 82.4258,129.0874 82.4258,122.2924 C82.4258,115.9204 79.5128,112.8244 70.5938,112.8244 L65.5548,112.8244 L65.5548,132.6104 L71.3168,132.6104 Z M65.5548,149.5334 C65.5548,152.5074 66.3518,153.4774 72.4148,153.6634 L72.4148,154.2074 L53.2328,154.2074 L53.2328,153.6634 C59.4308,153.4774 60.3978,152.4484 60.3978,149.4734 L60.3978,116.5874 C60.3978,113.6764 59.4308,112.5844 53.2328,112.4004 L53.2328,111.9134 L70.8908,111.9134 C82.0578,111.9134 88.3098,115.9204 88.3098,122.2354 C88.3098,127.6914 84.5478,131.5744 75.5648,132.9704 L75.5648,133.1544 C84.3658,134.0624 86.2518,137.3994 87.1568,143.9544 L87.5218,146.5614 C88.4958,152.2684 89.5228,153.4774 95.2888,153.4774 L95.2888,153.9644 C93.2838,154.3294 91.0408,154.5084 89.0358,154.5084 C83.6968,154.5084 82.6048,151.9044 81.9358,146.4414 L81.2698,140.9784 C80.5398,134.9134 78.7178,133.5174 71.5028,133.5174 L65.5548,133.5174 L65.5548,149.5334 Z" id="Fill-11"></path><path d="M137.351,133.092 C137.351,116.532 131.099,111.736 123.15,111.736 C115.262,111.736 109.317,116.532 109.317,133.031 C109.317,149.534 115.563,154.392 123.518,154.392 C131.406,154.392 137.351,149.534 137.351,133.092 M103.308,133.151 C103.308,119.744 113.322,110.883 123.397,110.883 C133.769,110.883 143.36,119.443 143.36,132.97 C143.36,146.321 133.346,155.244 123.332,155.244 C112.9,155.244 103.308,146.622 103.308,133.151" id="Fill-13"></path><path d="M159.0043,141.71 L159.0043,116.588 C159.0043,113.676 157.9773,112.585 151.8493,112.4 L151.8493,111.914 L170.8433,111.914 L170.8433,112.4 C164.7703,112.585 164.1653,113.617 164.1653,116.529 L164.1653,140.373 C164.1653,150.205 169.4473,153.478 176.9673,153.478 C180.4243,153.478 183.1013,152.569 185.1013,150.629 C187.3423,148.385 188.7413,145.35 188.7413,140.434 L188.7413,119.443 C188.7413,114.768 187.4063,113.252 180.9713,112.4 L180.9713,111.914 L196.7473,111.914 L196.7473,112.4 C190.7393,113.313 189.8293,114.829 189.8293,119.443 L189.8293,140.858 C189.8293,149.353 184.7873,155.179 174.7843,155.179 C164.9523,155.179 159.0043,150.629 159.0043,141.71" id="Fill-15"></path><path d="M221.054,134.307 C230.162,134.307 232.034,130.179 232.034,123.384 C232.034,117.316 230.034,112.825 221.237,112.825 L216.322,112.825 L216.322,134.307 L221.054,134.307 Z M204.004,153.66 C210.195,153.478 211.172,152.449 211.172,149.476 L211.172,116.586 C211.172,113.676 210.195,112.581 204.004,112.4 L204.004,111.914 L221.179,111.914 C232.943,111.914 237.925,116.833 237.925,123.323 C237.925,129.451 232.943,135.214 220.753,135.214 L216.322,135.214 L216.322,149.476 C216.322,152.572 217.472,153.478 223.846,153.66 L223.846,154.206 L204.004,154.206 L204.004,153.66 Z" id="Fill-17"></path><path d="M11.1125,61.6893 L10.9905,61.6893 L10.9905,91.2443 C10.9905,95.9093 12.0245,97.4283 18.5135,98.2833 L18.5135,98.8283 L2.5555,98.8283 L2.5555,98.2833 C8.6855,97.4283 9.9025,95.9093 9.9025,91.2443 L9.9025,62.9663 C9.9025,59.6883 8.2605,57.3833 2.5555,57.0173 L2.5555,56.5303 L13.9585,56.5303 L39.0825,90.5683 L39.1465,90.5683 L39.1465,64.0563 C39.1465,59.3843 37.8075,57.8653 31.4405,57.0173 L31.4405,56.5303 L47.2135,56.5303 L47.2135,57.0173 C41.2045,57.9293 40.2315,59.4483 40.2315,64.0563 L40.2315,99.8583 L39.3825,99.8583 L11.1125,61.6893 Z" id="Fill-19"></path><path d="M55.8856,98.2769 C62.0766,98.0999 63.0436,97.0669 63.0436,94.0859 L63.0436,61.2029 C63.0436,58.2959 62.0766,57.2009 55.8856,57.0169 L55.8856,56.5359 L89.9286,56.5359 L90.1106,68.9739 L89.5596,69.0319 C86.3456,60.2969 84.2846,57.4409 78.4646,57.4409 L68.2046,57.4409 L68.2046,76.3759 L73.9696,76.3759 C78.4006,76.3759 79.9716,74.7349 81.5536,68.0629 L82.1016,68.0629 L82.1016,85.6609 L81.5536,85.6609 C79.9716,78.9829 78.4006,77.2859 73.9696,77.2859 L68.2046,77.2859 L68.2046,97.9149 L79.4886,97.9149 C85.8596,97.9149 88.1036,94.8789 91.4426,85.5989 L91.9896,85.6609 L91.6856,98.8209 L55.8856,98.8209 L55.8856,98.2769 Z" id="Fill-21"></path><path d="M113.1734,98.2769 C119.4834,98.0999 120.8214,97.1249 120.8214,94.0859 L120.8214,57.4409 L115.9654,57.4409 C111.5914,57.4409 109.0464,59.9289 105.2854,68.7919 L104.7374,68.7269 L105.0994,56.5359 L141.6874,56.5359 L142.0554,68.7269 L141.5114,68.7919 C137.8044,60.1749 135.2554,57.4409 130.8314,57.4409 L125.9754,57.4409 L125.9754,94.0859 C125.9754,97.1249 127.3134,98.0999 133.6164,98.2769 L133.6164,98.8209 L113.1734,98.8209 L113.1734,98.2769 Z" id="Fill-23"></path><polygon id="Fill-25" points="153.424 82.383 168.957 82.383 168.957 81.413 153.424 81.413"></polygon><polygon id="Fill-27" points="228.018 82.383 243.55 82.383 243.55 81.413 228.018 81.413"></polygon><path d="M204.612,81.4127 L197.755,62.4227 L197.572,62.4227 L190.174,81.4127 L204.612,81.4127 Z M204.913,82.3827 L189.806,82.3827 L187.322,88.8767 C184.524,96.0937 185.196,97.6707 191.323,98.2767 L191.323,98.8277 L177.43,98.8277 L177.43,98.2767 C181.614,97.5487 183.189,95.9097 186.048,88.7497 L199.397,55.2007 L200.246,55.2007 L213.957,91.7257 C215.897,96.9467 216.627,97.8527 221.419,98.2767 L221.419,98.8277 L203.399,98.8277 L203.399,98.2767 C209.648,98.0387 210.134,96.7647 208.739,92.8777 L204.913,82.3827 Z" id="Fill-28"></path><path d="M274.2118,78.9202 C283.3198,78.9202 285.1918,74.7992 285.1918,68.0002 C285.1918,61.9362 283.1878,57.4412 274.3948,57.4412 L269.4768,57.4412 L269.4768,78.9202 L274.2118,78.9202 Z M257.1578,98.2772 C263.3528,98.0992 264.3268,97.0672 264.3268,94.0862 L264.3268,61.2022 C264.3268,58.2962 263.3528,57.2012 257.1578,57.0172 L257.1578,56.5352 L274.3368,56.5352 C286.1048,56.5352 291.0828,61.4472 291.0828,67.9432 C291.0828,74.0702 286.1048,79.8312 273.9108,79.8312 L269.4768,79.8312 L269.4768,94.0862 C269.4768,97.1882 270.6228,98.0992 277.0038,98.2772 L277.0038,98.8212 L257.1578,98.8212 L257.1578,98.2772 Z" id="Fill-29"></path><path d="M335.3794,77.7103 C335.3794,61.1453 329.1304,56.3533 321.1884,56.3533 C313.2934,56.3533 307.3494,61.1453 307.3494,77.6533 C307.3494,94.1503 313.5974,99.0053 321.5464,99.0053 C329.4344,99.0053 335.3794,94.1503 335.3794,77.7103 M301.3464,77.7733 C301.3464,64.3613 311.3574,55.4983 321.4254,55.4983 C331.8004,55.4983 341.3914,64.0563 341.3914,77.5833 C341.3914,90.9343 331.3744,99.8583 321.3674,99.8583 C310.9274,99.8583 301.3464,91.2443 301.3464,77.7733" id="Fill-30"></path><path d="M367.8034,77.2237 C376.9044,77.2237 378.9024,73.7037 378.9024,66.9107 C378.9024,60.5367 375.9954,57.4407 367.0764,57.4407 L362.0374,57.4407 L362.0374,77.2237 L367.8034,77.2237 Z M362.0374,94.1557 C362.0374,97.1247 362.8284,98.0947 368.8914,98.2767 L368.8914,98.8277 L349.7224,98.8277 L349.7224,98.2767 C355.9104,98.0947 356.8804,97.0667 356.8804,94.0927 L356.8804,61.2077 C356.8804,58.2897 355.9104,57.2007 349.7224,57.0167 L349.7224,56.5357 L367.3774,56.5357 C378.5374,56.5357 384.7924,60.5367 384.7924,66.8487 C384.7924,72.3117 381.0274,76.1917 372.0484,77.5907 L372.0484,77.7727 C380.8524,78.6787 382.7314,82.0157 383.6364,88.5727 L384.0014,91.1817 C384.9684,96.8847 386.0094,98.0947 391.7644,98.0947 L391.7644,98.5807 C389.7644,98.9477 387.5204,99.1257 385.5194,99.1257 C380.1794,99.1257 379.0884,96.5177 378.4154,91.0597 L377.7534,85.5987 C377.0264,79.5337 375.2044,78.1347 367.9824,78.1347 L362.0374,78.1347 L362.0374,94.1557 Z" id="Fill-31"></path><path d="M406.6824,98.2769 C412.9924,98.0999 414.3274,97.1249 414.3274,94.0859 L414.3274,57.4409 L409.4774,57.4409 C405.1004,57.4409 402.5594,59.9289 398.7944,68.7919 L398.2464,68.7269 L398.6084,56.5359 L435.1924,56.5359 L435.5614,68.7269 L435.0134,68.7919 C431.3134,60.1749 428.7684,57.4409 424.3344,57.4409 L419.4844,57.4409 L419.4844,94.0859 C419.4844,97.1249 420.8194,98.0999 427.1254,98.2769 L427.1254,98.8209 L406.6824,98.8209 L406.6824,98.2769 Z" id="Fill-32"></path><path d="M444.5612,98.2769 C450.7462,98.0999 451.7222,97.0669 451.7222,94.0859 L451.7222,61.2029 C451.7222,58.2959 450.7462,57.2009 444.5612,57.0169 L444.5612,56.5359 L478.6072,56.5359 L478.7832,68.9739 L478.2352,69.0319 C475.0212,60.2969 472.9602,57.4409 467.1302,57.4409 L456.8732,57.4409 L456.8732,76.3759 L462.6452,76.3759 C467.0692,76.3759 468.6512,74.7349 470.2222,68.0629 L470.7732,68.0629 L470.7732,85.6609 L470.2222,85.6609 C468.6512,78.9829 467.0692,77.2859 462.6452,77.2859 L456.8732,77.2859 L456.8732,97.9149 L468.1642,97.9149 C474.5352,97.9149 476.7852,94.8789 480.1112,85.5989 L480.6652,85.6609 L480.3652,98.8209 L444.5612,98.8209 L444.5612,98.2769 Z" id="Fill-33"></path><path d="M510.6695,77.2237 C519.7745,77.2237 521.7715,73.7037 521.7715,66.9107 C521.7715,60.5367 518.8655,57.4407 509.9435,57.4407 L504.9075,57.4407 L504.9075,77.2237 L510.6695,77.2237 Z M504.9075,94.1557 C504.9075,97.1247 505.6945,98.0947 511.7615,98.2767 L511.7615,98.8277 L492.5855,98.8277 L492.5855,98.2767 C498.7765,98.0947 499.7465,97.0667 499.7465,94.0927 L499.7465,61.2077 C499.7465,58.2897 498.7765,57.2007 492.5855,57.0167 L492.5855,56.5357 L510.2435,56.5357 C521.4035,56.5357 527.6585,60.5367 527.6585,66.8487 C527.6585,72.3117 523.8945,76.1917 514.9175,77.5907 L514.9175,77.7727 C523.7145,78.6787 525.5975,82.0157 526.5065,88.5727 L526.8715,91.1817 C527.8415,96.8847 528.8755,98.0947 534.6345,98.0947 L534.6345,98.5807 C532.6305,98.9477 530.3865,99.1257 528.3895,99.1257 C523.0455,99.1257 521.9575,96.5177 521.2845,91.0597 L520.6225,85.5987 C519.8925,79.5337 518.0705,78.1347 510.8525,78.1347 L504.9075,78.1347 L504.9075,94.1557 Z" id="Fill-34"></path></g></g></g></svg> 